<mxfile host="app.diagrams.net" modified="2022-06-29T07:44:57.857Z" agent="5.0 (Macintosh; Intel Mac OS X 10_15_7) AppleWebKit/605.1.15 (KHTML, like Gecko) Version/15.5 Safari/605.1.15" etag="zNAWJeXYYcPR5eSg_SNZ" version="20.0.3" type="github">
  <diagram id="YXAIdQh22cn0ypTbMpsr" name="Page-1">
    <mxGraphModel dx="1395" dy="939" grid="1" gridSize="10" guides="1" tooltips="1" connect="1" arrows="1" fold="1" page="1" pageScale="1" pageWidth="1169" pageHeight="827" math="0" shadow="0">
      <root>
        <mxCell id="0" />
        <mxCell id="1" parent="0" />
        <mxCell id="ul6lCoCTkDf4-Ab4EnK3-1" value="" style="edgeStyle=orthogonalEdgeStyle;rounded=0;orthogonalLoop=1;jettySize=auto;html=1;exitX=0.5;exitY=1;exitDx=0;exitDy=0;strokeColor=#000000;strokeWidth=3;" parent="1" source="HNHQt23FD9ma0YU1yUpo-1" target="HNHQt23FD9ma0YU1yUpo-5" edge="1">
          <mxGeometry x="0.6" y="50" relative="1" as="geometry">
            <mxPoint as="offset" />
          </mxGeometry>
        </mxCell>
        <mxCell id="HNHQt23FD9ma0YU1yUpo-1" value="Init" style="ellipse;shape=doubleEllipse;html=1;dashed=0;whitespace=wrap;aspect=fixed;" parent="1" vertex="1">
          <mxGeometry x="490" y="170" width="60" height="60" as="geometry" />
        </mxCell>
        <mxCell id="610xWfQiFyubg0RFQDck-6" value="" style="edgeStyle=none;rounded=0;orthogonalLoop=1;jettySize=auto;html=1;exitX=0.5;exitY=0;exitDx=0;exitDy=0;endArrow=classic;endFill=1;strokeColor=#000000;strokeWidth=3;" parent="1" source="nLiSzVlp-zViqbSXrZ6q-3" target="nLiSzVlp-zViqbSXrZ6q-2" edge="1">
          <mxGeometry y="-20" relative="1" as="geometry">
            <mxPoint as="offset" />
            <mxPoint x="610" y="380" as="targetPoint" />
          </mxGeometry>
        </mxCell>
        <mxCell id="HNHQt23FD9ma0YU1yUpo-2" value="Decode" style="ellipse;shape=doubleEllipse;html=1;dashed=0;whitespace=wrap;aspect=fixed;fontSize=10;" parent="1" vertex="1">
          <mxGeometry x="490" y="350" width="60" height="60" as="geometry" />
        </mxCell>
        <mxCell id="610xWfQiFyubg0RFQDck-4" style="edgeStyle=none;rounded=0;orthogonalLoop=1;jettySize=auto;html=1;entryX=0.5;entryY=0;entryDx=0;entryDy=0;endArrow=classic;endFill=1;strokeColor=#000000;strokeWidth=3;" parent="1" source="HNHQt23FD9ma0YU1yUpo-5" target="HNHQt23FD9ma0YU1yUpo-2" edge="1">
          <mxGeometry relative="1" as="geometry" />
        </mxCell>
        <mxCell id="610xWfQiFyubg0RFQDck-5" value="new frame" style="edgeLabel;html=1;align=center;verticalAlign=middle;resizable=0;points=[];" parent="610xWfQiFyubg0RFQDck-4" vertex="1" connectable="0">
          <mxGeometry x="-0.2667" y="1" relative="1" as="geometry">
            <mxPoint x="39" y="-1" as="offset" />
          </mxGeometry>
        </mxCell>
        <mxCell id="HNHQt23FD9ma0YU1yUpo-5" value="Idle" style="ellipse;shape=doubleEllipse;html=1;dashed=0;whitespace=wrap;aspect=fixed;fontSize=10;" parent="1" vertex="1">
          <mxGeometry x="490" y="260" width="60" height="60" as="geometry" />
        </mxCell>
        <mxCell id="nLiSzVlp-zViqbSXrZ6q-1" value="Get data" style="ellipse;shape=doubleEllipse;html=1;dashed=0;whitespace=wrap;aspect=fixed;fontSize=10;" vertex="1" parent="1">
          <mxGeometry x="350" y="350" width="60" height="60" as="geometry" />
        </mxCell>
        <mxCell id="nLiSzVlp-zViqbSXrZ6q-2" value="Transmit &lt;br&gt;register" style="ellipse;shape=doubleEllipse;html=1;dashed=0;whitespace=wrap;aspect=fixed;fontSize=10;" vertex="1" parent="1">
          <mxGeometry x="630" y="260" width="60" height="60" as="geometry" />
        </mxCell>
        <mxCell id="nLiSzVlp-zViqbSXrZ6q-3" value="Read&lt;br&gt;register" style="ellipse;shape=doubleEllipse;html=1;dashed=0;whitespace=wrap;aspect=fixed;fontSize=10;" vertex="1" parent="1">
          <mxGeometry x="630" y="350" width="60" height="60" as="geometry" />
        </mxCell>
        <mxCell id="nLiSzVlp-zViqbSXrZ6q-4" value="Write&lt;br&gt;register" style="ellipse;shape=doubleEllipse;html=1;dashed=0;whitespace=wrap;aspect=fixed;fontSize=10;" vertex="1" parent="1">
          <mxGeometry x="350" y="260" width="60" height="60" as="geometry" />
        </mxCell>
        <mxCell id="nLiSzVlp-zViqbSXrZ6q-5" value="write" style="edgeStyle=none;rounded=0;orthogonalLoop=1;jettySize=auto;html=1;exitX=0;exitY=0.5;exitDx=0;exitDy=0;entryX=1;entryY=0.5;entryDx=0;entryDy=0;endArrow=classic;endFill=1;strokeColor=#000000;strokeWidth=3;" edge="1" parent="1" source="HNHQt23FD9ma0YU1yUpo-2" target="nLiSzVlp-zViqbSXrZ6q-1">
          <mxGeometry y="10" relative="1" as="geometry">
            <mxPoint as="offset" />
            <mxPoint x="390" y="430" as="sourcePoint" />
            <mxPoint x="450" y="430" as="targetPoint" />
          </mxGeometry>
        </mxCell>
        <mxCell id="nLiSzVlp-zViqbSXrZ6q-6" value="read" style="edgeStyle=none;rounded=0;orthogonalLoop=1;jettySize=auto;html=1;exitX=1;exitY=0.5;exitDx=0;exitDy=0;endArrow=classic;endFill=1;strokeColor=#000000;strokeWidth=3;" edge="1" parent="1" source="HNHQt23FD9ma0YU1yUpo-2" target="nLiSzVlp-zViqbSXrZ6q-3">
          <mxGeometry y="-10" relative="1" as="geometry">
            <mxPoint as="offset" />
            <mxPoint x="508.7867965644034" y="411.2132034355965" as="sourcePoint" />
            <mxPoint x="460" y="440" as="targetPoint" />
          </mxGeometry>
        </mxCell>
        <mxCell id="nLiSzVlp-zViqbSXrZ6q-7" value="new frame" style="edgeStyle=none;rounded=0;orthogonalLoop=1;jettySize=auto;html=1;exitX=0.5;exitY=0;exitDx=0;exitDy=0;endArrow=classic;endFill=1;strokeColor=#000000;strokeWidth=3;entryX=0.5;entryY=1;entryDx=0;entryDy=0;" edge="1" parent="1" source="nLiSzVlp-zViqbSXrZ6q-1" target="nLiSzVlp-zViqbSXrZ6q-4">
          <mxGeometry x="0.3333" y="-40" relative="1" as="geometry">
            <mxPoint as="offset" />
            <mxPoint x="359.9967965644034" y="440.0032034355965" as="sourcePoint" />
            <mxPoint x="361.21" y="490" as="targetPoint" />
          </mxGeometry>
        </mxCell>
        <mxCell id="nLiSzVlp-zViqbSXrZ6q-8" value="" style="edgeStyle=none;rounded=0;orthogonalLoop=1;jettySize=auto;html=1;exitX=1;exitY=0.5;exitDx=0;exitDy=0;endArrow=classic;endFill=1;strokeColor=#000000;strokeWidth=3;entryX=0;entryY=0.5;entryDx=0;entryDy=0;" edge="1" parent="1" source="nLiSzVlp-zViqbSXrZ6q-4" target="HNHQt23FD9ma0YU1yUpo-5">
          <mxGeometry x="0.0883" y="20" relative="1" as="geometry">
            <mxPoint as="offset" />
            <mxPoint x="407.5767965644034" y="357.5767965644034" as="sourcePoint" />
            <mxPoint x="390.0032034355964" y="310.0032034355964" as="targetPoint" />
          </mxGeometry>
        </mxCell>
        <mxCell id="nLiSzVlp-zViqbSXrZ6q-10" value="" style="edgeStyle=none;rounded=0;orthogonalLoop=1;jettySize=auto;html=1;exitX=0;exitY=0.5;exitDx=0;exitDy=0;endArrow=classic;endFill=1;strokeColor=#000000;strokeWidth=3;entryX=1;entryY=0.5;entryDx=0;entryDy=0;" edge="1" parent="1" source="nLiSzVlp-zViqbSXrZ6q-2" target="HNHQt23FD9ma0YU1yUpo-5">
          <mxGeometry y="-20" relative="1" as="geometry">
            <mxPoint as="offset" />
            <mxPoint x="560" y="230" as="sourcePoint" />
            <mxPoint x="640" y="230" as="targetPoint" />
          </mxGeometry>
        </mxCell>
      </root>
    </mxGraphModel>
  </diagram>
</mxfile>
